<svg width="24" height="24" viewBox="0 0 24 24" fill="none" xmlns="http://www.w3.org/2000/svg">
<path d="M4.88889 7.77778H19.1111C19.6 7.77778 20 7.37778 20 6.88889C20 6.4 19.6 6 19.1111 6H4.88889C4.4 6 4 6.4 4 6.88889C4 7.37778 4.4 7.77778 4.88889 7.77778ZM19.1111 16.6667H4.88889C4.4 16.6667 4 17.0667 4 17.5556C4 18.0444 4.4 18.4444 4.88889 18.4444H19.1111C19.6 18.4444 20 18.0444 20 17.5556C20 17.0667 19.6 16.6667 19.1111 16.6667ZM4.88889 13.1111H19.1111C19.6 13.1111 20 12.7111 20 12.2222C20 11.7333 19.6 11.3333 19.1111 11.3333H4.88889C4.4 11.3333 4 11.7333 4 12.2222C4 12.7111 4.4 13.1111 4.88889 13.1111Z" fill="black"/>
</svg>
