<svg width="125" height="96" viewBox="0 0 125 96" fill="none" xmlns="http://www.w3.org/2000/svg">
<path fill-rule="evenodd" clip-rule="evenodd" d="M17.9844 14.8398C8.60106 14.8398 0.924727 22.5094 0.924727 31.8848C0.924727 41.2602 8.60106 48.9298 17.9844 48.9298C19.8668 48.9298 21.4086 50.4702 21.4086 52.3511C21.4086 54.2317 19.8668 55.7721 17.9844 55.7721H9.05782C4.48011 55.7721 0.734375 59.5148 0.734375 64.0883C0.734375 68.6618 4.48011 72.4045 9.05782 72.4045C13.0168 72.4045 16.2563 75.6412 16.2563 79.5968C16.2563 86.8137 22.1662 92.7184 29.3893 92.7184H106.485C115.869 92.7184 123.545 85.0489 123.545 75.6735C123.545 66.298 115.869 58.6285 106.485 58.6285H104.835C102.952 58.6285 101.41 57.0901 101.41 55.2074C101.41 53.3266 102.95 51.7861 104.835 51.7861H115.943C120.52 51.7861 124.266 48.0437 124.266 43.47C124.266 38.9021 120.53 35.1634 115.96 35.1538H107.022C103.063 35.1538 99.823 31.9171 99.823 27.9617C99.823 20.7447 93.9133 14.8398 86.69 14.8398H17.9844Z" fill="url(#paint0_linear_1946_415715)"/>
<path d="M94.3604 0H29.257C27.7721 0 26.5684 1.20376 26.5684 2.68868V24.3404C26.5684 25.8253 27.7721 27.029 29.257 27.029H94.3604C95.8454 27.029 97.0491 25.8253 97.0491 24.3404V2.68868C97.0491 1.20376 95.8454 0 94.3604 0Z" fill="#0078AD"/>
<path d="M82.5083 21.5546C84.6813 21.5546 86.4428 19.7931 86.4428 17.6201C86.4428 15.4471 84.6813 13.6855 82.5083 13.6855C80.3353 13.6855 78.5737 15.4471 78.5737 17.6201C78.5737 19.7931 80.3353 21.5546 82.5083 21.5546Z" fill="white"/>
<path fill-rule="evenodd" clip-rule="evenodd" d="M86.0396 21.1047C86.9572 20.1773 87.4711 18.9248 87.4694 17.6201C87.4711 16.3154 86.9571 15.063 86.0396 14.1355C86.6036 13.8391 87.2314 13.6846 87.8686 13.6856C90.0416 13.6856 91.8031 15.4471 91.8031 17.6201C91.8031 19.7931 90.0416 21.5546 87.8686 21.5546C87.2083 21.5546 86.586 21.3922 86.0396 21.1047Z" fill="white"/>
<path d="M65.9149 6.1582H35.4645C33.7639 6.1582 32.3853 7.53684 32.3853 9.23748C32.3853 10.9381 33.7639 12.3168 35.4645 12.3168H65.9149C67.6155 12.3168 68.9941 10.9381 68.9941 9.23748C68.9941 7.53684 67.6155 6.1582 65.9149 6.1582Z" fill="white"/>
<path d="M54.6242 15.0547H35.4645C33.7639 15.0547 32.3853 16.4333 32.3853 18.134C32.3853 19.8346 33.7639 21.2132 35.4645 21.2132H54.6242C56.3249 21.2132 57.7035 19.8346 57.7035 18.134C57.7035 16.4333 56.3249 15.0547 54.6242 15.0547Z" fill="white"/>
<path d="M94.3604 68.9707H29.257C27.7721 68.9707 26.5684 70.1745 26.5684 71.6594V93.3111C26.5684 94.796 27.7721 95.9997 29.257 95.9997H94.3604C95.8454 95.9997 97.0491 94.796 97.0491 93.3111V71.6594C97.0491 70.1745 95.8454 68.9707 94.3604 68.9707Z" fill="#0078AD"/>
<path d="M82.5083 90.5253C84.6813 90.5253 86.4428 88.7638 86.4428 86.5908C86.4428 84.4178 84.6813 82.6562 82.5083 82.6562C80.3353 82.6562 78.5737 84.4178 78.5737 86.5908C78.5737 88.7638 80.3353 90.5253 82.5083 90.5253Z" fill="white"/>
<path fill-rule="evenodd" clip-rule="evenodd" d="M86.0396 90.0754C86.9572 89.148 87.4711 87.8955 87.4694 86.5908C87.4711 85.2861 86.9571 84.0337 86.0396 83.1062C86.6036 82.8098 87.2314 82.6553 87.8686 82.6563C90.0416 82.6563 91.8031 84.4178 91.8031 86.5908C91.8031 88.7638 90.0416 90.5254 87.8686 90.5254C87.2083 90.5254 86.586 90.3627 86.0396 90.0754Z" fill="white"/>
<path d="M65.9149 75.1289H35.4645C33.7639 75.1289 32.3853 76.5075 32.3853 78.2082C32.3853 79.9088 33.7639 81.2875 35.4645 81.2875H65.9149C67.6155 81.2875 68.9941 79.9088 68.9941 78.2082C68.9941 76.5075 67.6155 75.1289 65.9149 75.1289Z" fill="white"/>
<path d="M54.6242 84.0234H35.4645C33.7639 84.0234 32.3853 85.4021 32.3853 87.1027C32.3853 88.8034 33.7639 90.182 35.4645 90.182H54.6242C56.3249 90.182 57.7035 88.8034 57.7035 87.1027C57.7035 85.4021 56.3249 84.0234 54.6242 84.0234Z" fill="white"/>
<path d="M112.871 34.4863H47.7678C46.2829 34.4863 45.0791 35.6901 45.0791 37.175V58.8267C45.0791 60.3116 46.2829 61.5154 47.7678 61.5154H112.871C114.356 61.5154 115.56 60.3116 115.56 58.8267V37.175C115.56 35.6901 114.356 34.4863 112.871 34.4863Z" fill="#0078AD"/>
<path d="M101.019 56.039C103.192 56.039 104.953 54.2775 104.953 52.1045C104.953 49.9315 103.192 48.1699 101.019 48.1699C98.8455 48.1699 97.084 49.9315 97.084 52.1045C97.084 54.2775 98.8455 56.039 101.019 56.039Z" fill="white"/>
<path fill-rule="evenodd" clip-rule="evenodd" d="M104.551 55.5891C105.468 54.6616 105.982 53.4091 105.98 52.1045C105.982 50.7998 105.468 49.5473 104.55 48.6199C105.114 48.3234 105.742 48.169 106.379 48.1699C108.552 48.1699 110.314 49.9315 110.314 52.1045C110.314 54.2775 108.552 56.039 106.379 56.039C105.719 56.039 105.097 55.8764 104.551 55.5891Z" fill="white"/>
<path d="M84.4251 40.6445H53.9748C52.2741 40.6445 50.8955 42.0232 50.8955 43.7238C50.8955 45.4245 52.2741 46.8031 53.9748 46.8031H84.4251C86.1258 46.8031 87.5044 45.4245 87.5044 43.7238C87.5044 42.0232 86.1258 40.6445 84.4251 40.6445Z" fill="white"/>
<path d="M73.1345 49.5391H53.9748C52.2741 49.5391 50.8955 50.9177 50.8955 52.6183C50.8955 54.319 52.2741 55.6976 53.9748 55.6976H73.1345C74.8351 55.6976 76.2138 54.319 76.2138 52.6183C76.2138 50.9177 74.8351 49.5391 73.1345 49.5391Z" fill="white"/>
<path fill-rule="evenodd" clip-rule="evenodd" d="M33.6767 39.7161H32.8832C32.6913 39.7161 32.5368 39.56 32.5368 39.3699V38.5764C32.5368 38.3845 32.6931 38.23 32.8832 38.23H33.6767C33.8669 38.23 34.0231 38.386 34.0231 38.5764V39.3699C34.0232 39.4154 34.0143 39.4605 33.9969 39.5025C33.9796 39.5446 33.9541 39.5828 33.9219 39.615C33.8897 39.6471 33.8515 39.6726 33.8094 39.69C33.7673 39.7073 33.7222 39.7162 33.6767 39.7161ZM30.9258 39.7161H30.1323C29.9422 39.7161 29.7859 39.56 29.7859 39.3699V38.5764C29.7859 38.3845 29.9422 38.23 30.1323 38.23H30.9258C31.116 38.23 31.2723 38.386 31.2723 38.5764V39.3699C31.2723 39.56 31.116 39.7161 30.9258 39.7161ZM28.173 39.7161H27.3797C27.1893 39.7161 27.0333 39.56 27.0333 39.3699V38.5764C27.0333 38.3845 27.1893 38.23 27.3797 38.23H28.173C28.3633 38.23 28.5194 38.386 28.5194 38.5764V39.3699C28.5195 39.4154 28.5106 39.4605 28.4932 39.5025C28.4758 39.5446 28.4503 39.5828 28.4181 39.615C28.3859 39.6471 28.3477 39.6726 28.3056 39.69C28.2636 39.7073 28.2185 39.7162 28.173 39.7161ZM25.4219 39.7161H24.6284C24.4382 39.7161 24.2822 39.56 24.2822 39.3699V38.5764C24.2822 38.3845 24.4382 38.23 24.6284 38.23H25.4219C25.6138 38.23 25.7698 38.386 25.7698 38.5764V39.3699C25.7688 39.4617 25.7318 39.5495 25.6667 39.6142C25.6016 39.679 25.5137 39.7156 25.4219 39.7161ZM22.6708 39.7161H21.8773C21.6854 39.7161 21.5293 39.56 21.5293 39.3699V38.5764C21.5293 38.3845 21.6854 38.23 21.8773 38.23H22.6708C22.8609 38.23 23.017 38.386 23.017 38.5764V39.3699C23.017 39.56 22.8609 39.7161 22.6708 39.7161ZM30.8247 36.7162H30.0312C29.8411 36.7162 29.685 36.5601 29.685 36.37V35.5747C29.685 35.3846 29.8411 35.2285 30.0312 35.2285H30.8247C31.0166 35.2285 31.1711 35.3846 31.1711 35.5747V36.3682C31.1714 36.4139 31.1626 36.4591 31.1453 36.5013C31.128 36.5436 31.1026 36.582 31.0704 36.6143C31.0382 36.6466 30.9999 36.6723 30.9577 36.6898C30.9156 36.7073 30.8704 36.7162 30.8247 36.7162ZM28.0738 36.7162H27.2803C27.09 36.7162 26.9339 36.5601 26.9339 36.37V35.5747C26.9339 35.3846 27.09 35.2285 27.2803 35.2285H28.0738C28.264 35.2285 28.42 35.3846 28.42 35.5747V36.3682C28.4203 36.4138 28.4116 36.4591 28.3943 36.5013C28.377 36.5435 28.3516 36.5819 28.3194 36.6143C28.2872 36.6466 28.2489 36.6723 28.2068 36.6898C28.1647 36.7073 28.1195 36.7162 28.0738 36.7162ZM25.3227 36.7162H24.5292C24.3373 36.7162 24.1813 36.5601 24.1813 36.37V35.5747C24.1813 35.3846 24.3373 35.2285 24.5292 35.2285H25.3227C25.5129 35.2285 25.6689 35.3846 25.6689 35.5747V36.3682C25.6689 36.5601 25.5129 36.7162 25.3227 36.7162ZM28.173 42.9385H27.3797C27.1893 42.9385 27.0333 42.7824 27.0333 42.5923V41.7988C27.0333 41.6069 27.1893 41.4524 27.3797 41.4524H28.173C28.3633 41.4524 28.5194 41.6084 28.5194 41.7988V42.5923C28.5195 42.6378 28.5106 42.6829 28.4932 42.7249C28.4758 42.767 28.4503 42.8052 28.4181 42.8373C28.3859 42.8695 28.3477 42.895 28.3056 42.9124C28.2636 42.9297 28.2185 42.9386 28.173 42.9385ZM25.4219 42.9385H24.6284C24.4382 42.9385 24.2822 42.7824 24.2822 42.5923V41.7988C24.2822 41.6069 24.4382 41.4524 24.6284 41.4524H25.4219C25.6138 41.4524 25.7698 41.6084 25.7698 41.7988V42.5923C25.7688 42.6841 25.7318 42.7719 25.6667 42.8366C25.6016 42.9014 25.5137 42.938 25.4219 42.9385Z" fill="#E1E4E5"/>
<path d="M111.937 27.0445C115.78 27.0445 118.895 23.9294 118.895 20.0867C118.895 16.244 115.78 13.1289 111.937 13.1289C108.095 13.1289 104.979 16.244 104.979 20.0867C104.979 23.9294 108.095 27.0445 111.937 27.0445Z" fill="url(#paint1_linear_1946_415715)"/>
<defs>
<linearGradient id="paint0_linear_1946_415715" x1="65.1342" y1="136.382" x2="63.6201" y2="-69.8956" gradientUnits="userSpaceOnUse">
<stop stop-color="white"/>
<stop offset="1" stop-color="#EEEEEE"/>
</linearGradient>
<linearGradient id="paint1_linear_1946_415715" x1="112.234" y1="34.8465" x2="111.805" y2="-2.00878" gradientUnits="userSpaceOnUse">
<stop stop-color="white"/>
<stop offset="1" stop-color="#EEEEEE"/>
</linearGradient>
</defs>
</svg>
